<svg width="48" height="48" viewBox="0 0 48 48" fill="none" xmlns="http://www.w3.org/2000/svg">
<path d="M21.1565 22.7591C21.1565 17.6562 21.1565 12.5538 21.1565 7.45093C15.9222 8.27847 11.6646 9.10287 6.50049 9.92988C6.50049 15.1354 6.50049 17.7384 6.50049 22.9444C11.6646 22.8842 15.9222 22.8198 21.1565 22.7591Z" fill="#FCFCFC"/>
<path d="M23.2499 22.7286C28.4842 22.6657 34.8355 22.6061 39.9996 22.5427C39.9996 16.5521 39.9996 10.5609 39.9996 4.57031C34.8355 5.39785 28.4842 6.22173 23.2499 7.04979C23.2499 12.2762 23.2499 17.5021 23.2499 22.7286Z" fill="#FCFCFC"/>
<path d="M23.4596 25.272C23.4575 30.4979 23.4596 35.7243 23.4596 40.9507C28.6232 41.7783 34.8347 42.6027 39.9999 43.4297C39.9999 37.4391 39.9999 31.4474 39.9999 25.4573C34.8358 25.396 28.6248 25.3337 23.4596 25.272Z" fill="#FCFCFC"/>
<path d="M21.1565 25.2412C15.9222 25.179 11.6646 25.1177 6.50049 25.0554C6.50049 30.2614 6.50049 32.8639 6.50049 38.0699C11.6646 38.898 15.9222 39.7213 21.1565 40.5489C21.1565 35.4465 21.1565 30.3441 21.1565 25.2412Z" fill="#FCFCFC"/>
</svg>
